<?xml version="1.0" standalone="no"?><!DOCTYPE svg PUBLIC "-//W3C//DTD SVG 1.1//EN" "http://www.w3.org/Graphics/SVG/1.1/DTD/svg11.dtd"><svg t="1529985129286" class="icon" style="" viewBox="0 0 1024 1024" version="1.1" xmlns="http://www.w3.org/2000/svg" p-id="2165" xmlns:xlink="http://www.w3.org/1999/xlink" width="22" height="22"><defs><style type="text/css"></style></defs><path d="M581.818182 977.454545H311.854545c-88.436364 0-158.254545-69.818182-158.254545-158.254545v-204.8H83.781818c-13.963636 0-27.927273-9.309091-32.581818-23.272727-4.654545-13.963636 0-27.927273 9.309091-41.890909l428.218182-381.672728c13.963636-13.963636 32.581818-13.963636 46.545454 0l428.218182 381.672728c9.309091 9.309091 13.963636 27.927273 9.309091 41.890909-4.654545 13.963636-18.618182 23.272727-32.581818 23.272727h-69.818182v204.8c0 55.854545-27.927273 107.054545-74.472727 134.981818-18.618182 9.309091-41.890909 4.654545-51.2-9.309091-9.309091-18.618182-4.654545-41.890909 9.309091-51.2 23.272727-13.963636 41.890909-41.890909 41.890909-74.472727v-237.381818c0-18.618182 18.618182-37.236364 37.236363-37.236364h9.309091L512 246.690909l-330.472727 293.236364h9.309091c18.618182 0 37.236364 18.618182 37.236363 37.236363v237.381819c0 46.545455 37.236364 83.781818 83.781818 83.781818h274.618182c18.618182 0 37.236364 18.618182 37.236364 37.236363-4.654545 23.272727-18.618182 41.890909-41.890909 41.890909z" fill="#FF5C00" p-id="2166"></path><path d="M581.818182 977.454545c-18.618182 0-37.236364-18.618182-37.236364-37.236363s18.618182-37.236364 37.236364-37.236364c13.963636 0 23.272727-9.309091 23.272727-23.272727v-176.872727c0-13.963636-9.309091-23.272727-23.272727-23.272728h-139.636364c-13.963636 0-23.272727 9.309091-23.272727 23.272728v111.709091c0 18.618182-18.618182 37.236364-37.236364 37.236363s-37.236364-18.618182-37.236363-37.236363v-111.709091c0-51.2 41.890909-97.745455 97.745454-97.745455h144.290909c55.854545 0 97.745455 41.890909 97.745455 97.745455v176.872727c-4.654545 55.854545-46.545455 97.745455-102.4 97.745454z" fill="#FF5C00" p-id="2167"></path></svg>