<?xml version="1.0" standalone="no"?><!DOCTYPE svg PUBLIC "-//W3C//DTD SVG 1.1//EN" "http://www.w3.org/Graphics/SVG/1.1/DTD/svg11.dtd"><svg t="1529984832284" class="icon" style="" viewBox="0 0 1024 1024" version="1.1" xmlns="http://www.w3.org/2000/svg" p-id="1701" xmlns:xlink="http://www.w3.org/1999/xlink" width="22" height="22"><defs><style type="text/css"></style></defs><path d="M274.618182 479.418182c-46.545455 0-93.090909-4.654545-130.327273-27.927273 0 0-4.654545 0-4.654545-4.654545-65.163636-32.581818-93.090909-116.363636-93.090909-172.218182C46.545455 148.945455 148.945455 46.545455 269.963636 46.545455c60.509091 0 111.709091 23.272727 148.945455 60.50909 37.236364 37.236364 55.854545 83.781818 55.854545 139.636364v232.727273H274.618182zM176.872727 390.981818c32.581818 18.618182 88.436364 18.618182 130.327273 13.963637h97.745455V246.690909c0-32.581818-13.963636-65.163636-32.581819-88.436364-27.927273-23.272727-60.509091-37.236364-102.4-37.236363-83.781818 0-153.6 69.818182-153.6 153.6 0 37.236364 23.272727 93.090909 60.509091 116.363636-4.654545 0 0 0 0 0z m572.509091 88.436364h-204.8v-232.727273c0-51.2 18.618182-102.4 55.854546-139.636364 37.236364-37.236364 93.090909-60.509091 148.945454-60.50909C875.054545 46.545455 977.454545 148.945455 977.454545 274.618182c0 60.509091-27.927273 139.636364-88.436363 176.872727l-4.654546 4.654546c-41.890909 23.272727-88.436364 23.272727-134.981818 23.272727z m-130.327273-69.818182h97.745455c41.890909 0 97.745455 0 130.327273-13.963636h4.654545c37.236364-23.272727 55.854545-79.127273 55.854546-116.363637 0-83.781818-69.818182-153.6-153.6-153.6-41.890909 0-74.472727 13.963636-102.4 37.236364-23.272727 23.272727-32.581818 51.2-32.581819 88.436364v158.254545zM269.963636 977.454545C148.945455 977.454545 46.545455 875.054545 46.545455 749.381818c0-60.509091 27.927273-139.636364 88.436363-176.872727 0 0 4.654545 0 4.654546-4.654546 51.2-27.927273 116.363636-27.927273 167.563636-23.272727h167.563636v232.727273c0 51.2-18.618182 102.4-55.854545 139.636364-37.236364 37.236364-88.436364 60.509091-148.945455 60.50909z m-93.090909-344.436363c-37.236364 23.272727-55.854545 79.127273-55.854545 121.018182 0 83.781818 69.818182 153.6 153.6 153.6 41.890909 0 74.472727-13.963636 102.4-37.236364 23.272727-23.272727 32.581818-51.2 32.581818-88.436364v-162.909091H307.2c-46.545455-4.654545-97.745455-4.654545-130.327273 13.963637zM754.036364 977.454545c-60.509091 0-111.709091-23.272727-148.945455-60.50909-37.236364-37.236364-55.854545-83.781818-55.854545-139.636364v-232.727273h167.563636c51.2 0 116.363636-4.654545 167.563636 23.272727 0 0 4.654545 0 4.654546 4.654546 60.509091 37.236364 88.436364 121.018182 88.436363 176.872727 0 125.672727-102.4 228.072727-223.418181 228.072727z m-134.981819-363.054545v162.909091c0 32.581818 13.963636 65.163636 32.581819 88.436364 23.272727 23.272727 60.509091 37.236364 102.4 37.236363 83.781818 0 153.6-69.818182 153.6-153.6 0-41.890909-18.618182-97.745455-55.854546-116.363636h-4.654545c-32.581818-18.618182-88.436364-18.618182-130.327273-13.963637h-27.927273l-69.818182-4.654545z" fill="#FF5C00" p-id="1702"></path></svg>