<?xml version="1.0" standalone="no"?><!DOCTYPE svg PUBLIC "-//W3C//DTD SVG 1.1//EN" "http://www.w3.org/Graphics/SVG/1.1/DTD/svg11.dtd"><svg class="icon" width="22px" height="22.00px" viewBox="0 0 1024 1024" version="1.1" xmlns="http://www.w3.org/2000/svg"><path fill="#333333" d="M763.345455 907.636364c0 37.236364 32.581818 69.818182 69.818181 69.818181s69.818182-32.581818 69.818182-69.818181-32.581818-69.818182-69.818182-69.818182c-37.236364-4.654545-69.818182 27.927273-69.818181 69.818182z m0 0M311.854545 907.636364c0 37.236364 32.581818 69.818182 69.818182 69.818181s69.818182-32.581818 69.818182-69.818181S418.909091 837.818182 381.672727 837.818182c-41.890909-4.654545-69.818182 27.927273-69.818182 69.818182z m0 0M954.181818 325.818182c-18.618182-23.272727-46.545455-37.236364-79.127273-37.236364H465.454545c-23.272727 0-37.236364 13.963636-37.236363 37.236364 0 18.618182 13.963636 37.236364 37.236363 37.236363h409.6c9.309091 0 18.618182 4.654545 23.272728 13.963637 4.654545 9.309091 9.309091 18.618182 4.654545 27.927273l-51.2 269.963636c-4.654545 13.963636-13.963636 23.272727-32.581818 23.272727H390.981818c-13.963636 0-27.927273-9.309091-32.581818-23.272727L279.272727 246.690909c-9.309091-46.545455-51.2-79.127273-102.4-79.127273h-93.090909c-23.272727 0-37.236364 13.963636-37.236363 32.581819 0 18.618182 13.963636 37.236364 37.236363 37.236363h97.745455c13.963636 0 27.927273 9.309091 32.581818 23.272727l79.127273 423.563637c9.309091 46.545455 51.2 79.127273 102.4 79.127273h432.872727c46.545455 0 88.436364-32.581818 102.4-79.127273l51.2-269.963637c0-32.581818-9.309091-65.163636-27.927273-88.436363z m0 0"  /></svg>