<?xml version="1.0" standalone="no"?><!DOCTYPE svg PUBLIC "-//W3C//DTD SVG 1.1//EN" "http://www.w3.org/Graphics/SVG/1.1/DTD/svg11.dtd"><svg class="icon" width="22px" height="22.00px" viewBox="0 0 1024 1024" version="1.1" xmlns="http://www.w3.org/2000/svg"><path fill="#333333" d="M274.618182 484.072727c-46.545455 0-93.090909-4.654545-130.327273-27.927272 0 0-4.654545 0-4.654545-4.654546-65.163636-37.236364-93.090909-116.363636-93.090909-176.872727 0-125.672727 102.4-223.418182 223.418181-223.418182 60.509091 0 111.709091 23.272727 148.945455 60.509091 37.236364 37.236364 55.854545 83.781818 55.854545 139.636364v232.727272H274.618182zM176.872727 395.636364c32.581818 18.618182 88.436364 18.618182 130.327273 13.963636h97.745455V246.690909c0-32.581818-13.963636-65.163636-32.581819-88.436364-27.927273-23.272727-60.509091-37.236364-102.4-37.236363-83.781818 0-153.6 69.818182-153.6 153.6 0 41.890909 23.272727 97.745455 60.509091 121.018182-4.654545-4.654545 0 0 0 0z m572.509091 88.436363h-204.8v-232.727272c0-51.2 18.618182-102.4 55.854546-139.636364 37.236364-37.236364 93.090909-60.509091 148.945454-60.509091 125.672727 0 223.418182 102.4 223.418182 223.418182 0 60.509091-27.927273 139.636364-88.436364 176.872727l-4.654545 4.654546c-37.236364 23.272727-83.781818 27.927273-130.327273 27.927272z m-130.327273-74.472727h97.745455c41.890909 0 97.745455 0 130.327273-13.963636h4.654545c32.581818-23.272727 55.854545-79.127273 55.854546-121.018182 0-83.781818-69.818182-153.6-153.6-153.6-41.890909 0-74.472727 13.963636-102.4 37.236363-23.272727 23.272727-32.581818 51.2-32.581819 88.436364v162.909091zM269.963636 977.454545C148.945455 977.454545 46.545455 875.054545 46.545455 754.036364c0-60.509091 27.927273-139.636364 88.436363-176.872728 0 0 4.654545 0 4.654546-4.654545 51.2-27.927273 116.363636-27.927273 167.563636-23.272727h167.563636v232.727272c0 51.2-18.618182 102.4-55.854545 139.636364-37.236364 32.581818-88.436364 55.854545-148.945455 55.854545z m-93.090909-344.436363c-37.236364 23.272727-55.854545 79.127273-55.854545 121.018182 0 83.781818 69.818182 153.6 153.6 153.6 41.890909 0 74.472727-13.963636 102.4-37.236364 23.272727-23.272727 32.581818-51.2 32.581818-88.436364v-162.909091H307.2c-46.545455-4.654545-97.745455-4.654545-130.327273 13.963637zM754.036364 977.454545c-60.509091 0-111.709091-23.272727-148.945455-60.50909-37.236364-37.236364-55.854545-83.781818-55.854545-139.636364v-232.727273h167.563636c51.2 0 116.363636-4.654545 167.563636 23.272727 0 0 4.654545 0 4.654546 4.654546 60.509091 37.236364 88.436364 121.018182 88.436363 176.872727 0 125.672727-102.4 228.072727-223.418181 228.072727z m-134.981819-358.4v162.909091c0 32.581818 13.963636 65.163636 32.581819 88.436364 23.272727 23.272727 60.509091 37.236364 102.4 37.236364 83.781818 0 153.6-69.818182 153.6-153.6 0-41.890909-18.618182-97.745455-55.854546-116.363637h-4.654545c-32.581818-18.618182-88.436364-18.618182-130.327273-13.963636h-27.927273l-69.818182-4.654546z"  /></svg>