<?xml version="1.0" standalone="no"?><!DOCTYPE svg PUBLIC "-//W3C//DTD SVG 1.1//EN" "http://www.w3.org/Graphics/SVG/1.1/DTD/svg11.dtd"><svg t="1529985122130" class="icon" style="" viewBox="0 0 1024 1024" version="1.1" xmlns="http://www.w3.org/2000/svg" p-id="2053" xmlns:xlink="http://www.w3.org/1999/xlink" width="22" height="22"><defs><style type="text/css"></style></defs><path d="M902.981818 935.563636c-4.654545-153.6-97.745455-283.927273-232.727273-344.436363 88.436364-55.854545 139.636364-148.945455 139.636364-251.345455C809.890909 176.872727 674.909091 46.545455 512 46.545455 349.090909 46.545455 214.109091 176.872727 214.109091 339.781818c0 107.054545 55.854545 195.490909 139.636364 251.345455-134.981818 60.509091-228.072727 190.836364-232.727273 344.436363v4.654546c0 9.309091 4.654545 18.618182 9.309091 27.927273 9.309091 4.654545 18.618182 9.309091 32.581818 9.30909 9.309091 0 18.618182-4.654545 27.927273-9.30909 9.309091-9.309091 9.309091-18.618182 9.309091-27.927273 4.654545-167.563636 139.636364-302.545455 311.854545-302.545455s307.2 134.981818 311.854545 302.545455c0 9.309091 4.654545 18.618182 9.309091 27.927273s18.618182 9.309091 27.927273 9.30909c9.309091 0 18.618182-4.654545 27.927273-9.30909 9.309091-9.309091 13.963636-18.618182 13.963636-32.581819zM512 558.545455c-121.018182 0-218.763636-97.745455-218.763636-218.763637S390.981818 121.018182 512 121.018182s218.763636 97.745455 218.763636 218.763636S633.018182 558.545455 512 558.545455z m0 0" fill="#FF5C00" p-id="2054"></path></svg>