<?xml version="1.0" standalone="no"?><!DOCTYPE svg PUBLIC "-//W3C//DTD SVG 1.1//EN" "http://www.w3.org/Graphics/SVG/1.1/DTD/svg11.dtd"><svg t="1529985133897" class="icon" style="" viewBox="0 0 1024 1024" version="1.1" xmlns="http://www.w3.org/2000/svg" p-id="2278" xmlns:xlink="http://www.w3.org/1999/xlink" width="22" height="22"><defs><style type="text/css"></style></defs><path d="M763.345455 907.636364c0 37.236364 32.581818 69.818182 69.818181 69.818181s69.818182-32.581818 69.818182-69.818181-32.581818-69.818182-69.818182-69.818182-69.818182 27.927273-69.818181 69.818182z m0 0M311.854545 907.636364c0 37.236364 32.581818 69.818182 69.818182 69.818181s69.818182-32.581818 69.818182-69.818181c0-41.890909-32.581818-69.818182-69.818182-69.818182-41.890909 0-69.818182 27.927273-69.818182 69.818182z m0 0M954.181818 325.818182c-18.618182-23.272727-46.545455-37.236364-79.127273-37.236364H465.454545c-23.272727 0-37.236364 18.618182-37.236363 37.236364s13.963636 37.236364 37.236363 37.236363h409.6c9.309091 0 18.618182 4.654545 23.272728 13.963637 4.654545 9.309091 9.309091 18.618182 4.654545 27.927273l-51.2 269.963636c-4.654545 13.963636-13.963636 23.272727-32.581818 23.272727H390.981818c-13.963636 0-27.927273-9.309091-32.581818-23.272727L283.927273 251.345455c-9.309091-46.545455-51.2-79.127273-102.4-79.127273H83.781818c-23.272727-4.654545-37.236364 13.963636-37.236363 32.581818 0 18.618182 13.963636 37.236364 37.236363 37.236364h97.745455c13.963636 0 27.927273 9.309091 32.581818 23.272727l79.127273 423.563636c9.309091 46.545455 51.2 79.127273 102.4 79.127273h432.872727c46.545455 0 88.436364-32.581818 102.4-79.127273L982.109091 418.909091c0-32.581818-9.309091-65.163636-27.927273-93.090909z m0 0" fill="#FF5C00" p-id="2279"></path></svg>